HIERARCHY
ROOT Character1_Hips
{
  OFFSET 68.1347 93.2673 -157.776
  CHANNELS 6 Xposition Yposition Zposition Zrotation Xrotation Yrotation
  JOINT Character1_Pelvis_box
  {
    OFFSET 0 0.089997 -0.08
    CHANNELS 6 Xposition Yposition Zposition Zrotation Xrotation Yrotation
    End Site
    {
      OFFSET 0 0 0
    }
  }
  JOINT Character1_RightUpLeg
  {
    OFFSET -9.03 -4.63 1.84
    CHANNELS 6 Xposition Yposition Zposition Zrotation Xrotation Yrotation
    JOINT Character1_R_Femur_box
    {
      OFFSET -0.56 -20.96 -1.11
      CHANNELS 6 Xposition Yposition Zposition Zrotation Xrotation Yrotation
      End Site
      {
        OFFSET 0 0 0
      }
    }
    JOINT Character1_RightLeg
    {
      OFFSET -0.92 -39.5 0.13
      CHANNELS 6 Xposition Yposition Zposition Zrotation Xrotation Yrotation
      JOINT Character1_R_Tibia_box
      {
        OFFSET 0.67 -23.69 -2.38
        CHANNELS 6 Xposition Yposition Zposition Zrotation Xrotation Yrotation
        End Site
        {
          OFFSET 0 0 0
        }
      }
      JOINT Character1_RightFoot
      {
        OFFSET 1.95 -46.11 -3.16
        CHANNELS 6 Xposition Yposition Zposition Zrotation Xrotation Yrotation
        End Site
        {
          OFFSET -1.26 -3.73 3.78
        }
      }
    }
  }
  JOINT Character1_LeftUpLeg
  {
    OFFSET 9.03 -4.63 1.84001
    CHANNELS 6 Xposition Yposition Zposition Zrotation Xrotation Yrotation
    JOINT Character1_L_Femur_box
    {
      OFFSET 0.56 -20.96 -1.11
      CHANNELS 6 Xposition Yposition Zposition Zrotation Xrotation Yrotation
      End Site
      {
        OFFSET 0 0 0
      }
    }
    JOINT Character1_LeftLeg
    {
      OFFSET 0.92 -39.5 0.13
      CHANNELS 6 Xposition Yposition Zposition Zrotation Xrotation Yrotation
      JOINT Character1_L_Tibia_box
      {
        OFFSET -0.67 -23.69 -2.38
        CHANNELS 6 Xposition Yposition Zposition Zrotation Xrotation Yrotation
        End Site
        {
          OFFSET 0 0 0
        }
      }
      JOINT Character1_LeftFoot
      {
        OFFSET -1.95 -46.11 -3.16
        CHANNELS 6 Xposition Yposition Zposition Zrotation Xrotation Yrotation
        End Site
        {
          OFFSET 1.26 -3.73 3.78
        }
      }
    }
  }
  JOINT Character1_Spine
  {
    OFFSET 0 8.75 -1.34001
    CHANNELS 6 Xposition Yposition Zposition Zrotation Xrotation Yrotation
    JOINT Character1_Spine_box
    {
      OFFSET 0 5.29 1.34
      CHANNELS 6 Xposition Yposition Zposition Zrotation Xrotation Yrotation
      End Site
      {
        OFFSET 0 0 0
      }
    }
    JOINT Character1_Spine1
    {
      OFFSET 0 10.86 -0.639995
      CHANNELS 6 Xposition Yposition Zposition Zrotation Xrotation Yrotation
      JOINT Character1_Torso_box
      {
        OFFSET 0 13.36 1.13
        CHANNELS 6 Xposition Yposition Zposition Zrotation Xrotation Yrotation
        End Site
        {
          OFFSET 0 0 0
        }
      }
      JOINT Character1_Neck
      {
        OFFSET 0 30.83 0.62
        CHANNELS 6 Xposition Yposition Zposition Zrotation Xrotation Yrotation
        JOINT Character1_Neck_box
        {
          OFFSET 0 4.53 1.86
          CHANNELS 6 Xposition Yposition Zposition Zrotation Xrotation Yrotation
          End Site
          {
            OFFSET 0 0 0
          }
        }
        JOINT Character1_Head
        {
          OFFSET 0 8.07999 3.5
          CHANNELS 6 Xposition Yposition Zposition Zrotation Xrotation Yrotation
          End Site
          {
            OFFSET 0 8.54 2.36
          }
        }
      }
      JOINT Character1_RightShoulder
      {
        OFFSET -6.47 27.74 1.17
        CHANNELS 6 Xposition Yposition Zposition Zrotation Xrotation Yrotation
        JOINT Character1_R_Shoulder_box
        {
          OFFSET -3.34 1.09 -0.1
          CHANNELS 6 Xposition Yposition Zposition Zrotation Xrotation Yrotation
          End Site
          {
            OFFSET 0 0 0
          }
        }
        JOINT Character1_RightArm
        {
          OFFSET -13.48 -1.85001 0.279985
          CHANNELS 6 Xposition Yposition Zposition Zrotation Xrotation Yrotation
          JOINT Character1_R_Arm_box
          {
            OFFSET -15.83 1.72001 1.18
            CHANNELS 6 Xposition Yposition Zposition Zrotation Xrotation Yrotation
            End Site
            {
              OFFSET 0 0 0
            }
          }
          JOINT Character1_RightForeArm
          {
            OFFSET -32.39 2.56983 2.4799
            CHANNELS 6 Xposition Yposition Zposition Zrotation Xrotation Yrotation
            JOINT Character1_R_ForeArm_box
            {
              OFFSET -14.4 0.919997 0.46
              CHANNELS 6 Xposition Yposition Zposition Zrotation Xrotation Yrotation
              End Site
              {
                OFFSET 0 0 0
              }
            }
            JOINT Character1_RightHand
            {
              OFFSET -28.68 0.870001 2.99
              CHANNELS 6 Xposition Yposition Zposition Zrotation Xrotation Yrotation
              End Site
              {
                OFFSET -7.3 -0.92001 0.74
              }
            }
          }
        }
      }
      JOINT Character1_LeftShoulder
      {
        OFFSET 6.47 27.74 1.17
        CHANNELS 6 Xposition Yposition Zposition Zrotation Xrotation Yrotation
        JOINT Character1_L_Shoulder_box
        {
          OFFSET 3.34 1.09 -0.1
          CHANNELS 6 Xposition Yposition Zposition Zrotation Xrotation Yrotation
          End Site
          {
            OFFSET 0 0 0
          }
        }
        JOINT Character1_LeftArm
        {
          OFFSET 13.4801 -1.84999 0.280008
          CHANNELS 6 Xposition Yposition Zposition Zrotation Xrotation Yrotation
          JOINT Character1_L_Arm_box
          {
            OFFSET 15.83 1.72001 1.18
            CHANNELS 6 Xposition Yposition Zposition Zrotation Xrotation Yrotation
            End Site
            {
              OFFSET 0 0 0
            }
          }
          JOINT Character1_LeftForeArm
          {
            OFFSET 32.39 2.56993 2.47999
            CHANNELS 6 Xposition Yposition Zposition Zrotation Xrotation Yrotation
            JOINT Character1_L_ForeArm_box
            {
              OFFSET 14.4 0.919997 0.46
              CHANNELS 6 Xposition Yposition Zposition Zrotation Xrotation Yrotation
              End Site
              {
                OFFSET 0 0 0
              }
            }
            JOINT Character1_LeftHand
            {
              OFFSET 28.68 0.869996 2.98998
              CHANNELS 6 Xposition Yposition Zposition Zrotation Xrotation Yrotation
              End Site
              {
                OFFSET 7.3 -0.92001 0.74
              }
            }
          }
        }
      }
    }
  }
}
MOTION
Frames: 7
Frame Time: 0.00833333
68.1347 93.2673 -157.776 -1.81782 3.10016 13.423 0 0.089997 -0.08 2.98177e-016 0 -3.18055e-015 -9.03 -4.63 1.84 -7.51905 -29.3304 -6.36687 -0.56 -20.96 -1.11 178.999 0.985536 179.88 -0.92 -39.5 0.13 2.61271 -0.533876 -1.00332 0.67 -23.69 -2.38 -178 -5.00249 180 1.95 -46.11 -3.16 8.12256 13.8822 -15.2287 9.03 -4.63 1.84 4.59472 4.5505 -8.88709 0.56 -20.96 -1.11 1.00072 -0.985536 -0.120339 0.92 -39.5 0.13 -7.49406 36.1316 -1.5985 -0.67 -23.69 -2.38 -2.00003 5.00249 2.39454e-015 -1.95 -46.11 -3.16 12.2716 -31.7574 4.24969 0 8.75 -1.34 -3.11965 3.27619 -11.5839 -7.10543e-015 5.29 1.34 1.49089e-016 -1.59028e-015 -7.95139e-016 1.42109e-014 10.86 -0.64 8.61015 -0.460612 -6.82121 -7.10543e-015 13.36 1.13 2.98177e-016 -8.11145 -0 7.10543e-015 30.83 0.62 -8.54482 -6.87582 1.03515 0 4.53 1.86 1.49089e-015 13.3025 -0 7.10543e-015 8.07999 3.5 7.83335 -1.34984 1.92675 -6.47 27.74 1.17 7.28162 -1.53588 1.68529 -3.34 1.09 -0.1 179.728 0.0460078 -176.853 -13.48 -1.85001 0.28 89.1822 28.7843 -35.2007 -15.83 1.72001 1.18 -173.074 72.5861 168.727 -32.39 2.57001 2.48 -7.59773 -1.82231 20.6341 -14.4 0.919997 0.46 -166.737 68.9748 162.665 -28.68 0.870001 2.99 2.97628 -14.4133 0.518899 6.47 27.74 1.17 -3.5066 0.764435 -3.60952 3.34 1.09 -0.1 0.272227 -0.0460078 3.14706 13.48 -1.85001 0.28 -59.4372 35.1537 -21.2581 15.83 1.72001 1.18 -6.92597 -72.5861 -11.273 32.39 2.57001 2.48 32.5685 -28.4084 -68.3229 14.4 0.919997 0.46 -13.2633 -68.9748 -17.3353 28.68 0.870001 2.99 0.773807 -28.7848 0.0938416 
68.0921 93.1239 -156.112 -1.92088 3.09835 13.4978 0 0.089997 -0.08 5.96354e-016 -7.95139e-016 -0 -9.03 -4.63 1.84 -7.07823 -28.9491 -5.77792 -0.56 -20.96 -1.11 178.999 0.985536 179.88 -0.92 -39.5 0.13 2.52839 -0.663465 -0.946585 0.67 -23.69 -2.38 -178 -5.00249 180 1.95 -46.11 -3.16 8.09562 14.3219 -14.9578 9.03 -4.63 1.84 4.93165 5.52115 -9.0839 0.56 -20.96 -1.11 1.00072 -0.985536 -0.120339 0.92 -39.5 0.13 -7.3497 35.9156 -1.62416 -0.67 -23.69 -2.38 -2.00003 5.00249 7.98179e-016 -1.95 -46.11 -3.16 11.8269 -30.7422 3.92918 0 8.75 -1.34 -2.9812 3.19576 -11.7118 -7.10543e-015 5.29 1.34 -1.21756e-015 -7.95139e-016 -3.97569e-016 7.10543e-015 10.86 -0.64 8.68877 -0.412005 -6.86541 0 13.36 1.13 -1.98785e-016 -8.11145 -0 -7.10543e-015 30.83 0.62 -8.34972 -7.32309 1.09615 7.10543e-015 4.53 1.86 1.22998e-015 13.3025 -0 0 8.07999 3.5 7.46532 -0.986165 2.02828 -6.47 27.74 1.17 7.33282 -1.5321 1.68751 -3.34 1.09 -0.1 179.728 0.0460078 -176.853 -13.48 -1.85001 0.28 88.7497 28.3216 -34.7216 -15.83 1.72001 1.18 -173.074 72.5861 168.727 -32.39 2.57001 2.48 -7.24814 -1.68697 20.06 -14.4 0.919997 0.46 -166.737 68.9748 162.665 -28.68 0.870001 2.99 2.93668 -13.6254 0.437657 6.47 27.74 1.17 -3.48007 0.744509 -3.60096 3.34 1.09 -0.1 0.272227 -0.0460078 3.14706 13.48 -1.85001 0.28 -59.7786 35.042 -20.9279 15.83 1.72001 1.18 -6.92597 -72.5861 -11.273 32.39 2.57001 2.48 32.5687 -28.5756 -68.691 14.4 0.919997 0.46 -13.2633 -68.9748 -17.3353 28.68 0.870001 2.99 0.796045 -28.9262 0.110912 
68.0372 93.0127 -154.395 -2.05045 3.13711 13.4782 0 0.089997 -0.08 2.98177e-016 0 -0 -9.03 -4.63 1.84 -6.55129 -28.918 -5.18694 -0.56 -20.96 -1.11 178.999 0.985536 179.88 -0.92 -39.5 0.13 2.38633 -0.0598231 -0.897867 0.67 -23.69 -2.38 -178 -5.00249 180 1.95 -46.11 -3.16 8.30609 14.6169 -15.1462 9.03 -4.63 1.84 5.25288 6.41747 -9.20217 0.56 -20.96 -1.11 1.00072 -0.985536 -0.120339 0.92 -39.5 0.13 -7.14609 35.6993 -1.69607 -0.67 -23.69 -2.38 -2.00003 5.00249 7.98179e-016 -1.95 -46.11 -3.16 11.2998 -29.3724 3.58544 0 8.75 -1.34 -2.82985 3.01356 -11.7963 1.42109e-014 5.29 1.34 -7.70291e-016 0 -0 7.10543e-015 10.86 -0.64 8.77374 -0.348051 -6.89447 0 13.36 1.13 3.97569e-016 -8.11145 -0 0 30.83 0.62 -8.24595 -7.79323 1.16687 2.13163e-014 4.53 1.86 -3.01456e-016 13.3025 1.63412e-015 -7.10543e-015 8.07999 3.5 7.21296 -0.576896 2.18255 -6.47 27.74 1.17 7.37984 -1.52439 1.69359 -3.34 1.09 -0.1 179.728 0.0460078 -176.853 -13.48 -1.85001 0.28 88.2116 27.8022 -34.147 -15.83 1.72001 1.18 -173.074 72.5861 168.727 -32.39 2.57001 2.48 -6.90334 -1.5608 19.4955 -14.4 0.919997 0.46 -166.737 68.9748 162.665 -28.68 0.870001 2.99 2.89807 -12.8882 0.359337 6.47 27.74 1.17 -3.46028 0.71499 -3.58442 3.34 1.09 -0.1 0.272227 -0.0460078 3.14706 13.48 -1.85001 0.28 -60.2956 35.014 -20.3942 15.83 1.72001 1.18 -6.92597 -72.5861 -11.273 32.39 2.57001 2.48 32.5653 -28.6748 -68.9615 14.4 0.919997 0.46 -13.2633 -68.9748 -17.3353 28.68 0.870001 2.99 0.810558 -29.045 0.122862 
67.9617 92.9465 -152.602 -2.21072 3.24367 13.3479 1.42109e-014 0.089997 -0.08 0 0 -3.18055e-015 -9.03 -4.63 1.84 -5.89055 -29.402 -4.57074 -0.56 -20.96 -1.11 178.999 0.985536 179.88 -0.92 -39.5 0.13 2.12249 1.56937 -0.893628 0.67 -23.69 -2.38 -178 -5.00249 -180 1.95 -46.11 -3.16 9.03396 14.7504 -16.1708 9.03 -4.63 1.84 5.55017 7.25547 -9.24703 0.56 -20.96 -1.11 1.00072 -0.985536 -0.120339 0.92 -39.5 0.13 -6.87419 35.4409 -1.84258 -0.67 -23.69 -2.38 -2.00003 5.00249 -7.98179e-016 -1.95 -46.11 -3.16 10.7427 -27.6469 3.17579 1.42109e-014 8.75 -1.34 -2.68187 2.6676 -11.8356 -7.10543e-015 5.29 1.34 1.66482e-015 7.95139e-016 1.98785e-016 7.10543e-015 10.86 -0.64 8.88471 -0.257053 -6.90827 -7.10543e-015 13.36 1.13 3.83635e-016 -8.11145 -8.03174e-016 -7.10543e-015 30.83 0.62 -8.2948 -8.30538 1.24631 -1.42109e-014 4.53 1.86 -5.57442e-016 13.3025 -8.17062e-016 0 8.07999 3.5 7.14272 -0.0856543 2.40961 -6.47 27.74 1.17 7.42102 -1.51385 1.70258 -3.34 1.09 -0.1 179.728 0.0460078 -176.853 -13.48 -1.85001 0.28 87.523 27.1675 -33.4622 -15.83 1.72001 1.18 -173.074 72.5861 168.727 -32.39 2.57001 2.48 -6.55289 -1.44292 18.9263 -14.4 0.919997 0.46 -166.737 68.9748 162.665 -28.68 0.870001 2.99 2.85623 -12.1833 0.283522 6.47 27.74 1.17 -3.45071 0.672654 -3.55535 3.34 1.09 -0.1 0.272227 -0.0460078 3.14706 13.48 -1.85001 0.28 -61.0411 35.0857 -19.5922 15.83 1.72001 1.18 -6.92597 -72.5861 -11.273 32.39 2.57001 2.48 32.5604 -28.7069 -69.1419 14.4 0.919997 0.46 -13.2633 -68.9748 -17.3353 28.68 0.870001 2.99 0.814896 -29.1361 0.127052 
67.8717 92.9124 -150.754 -2.39233 3.39832 13.1375 1.42109e-014 0.089997 -0.08 0 3.97569e-016 -0 -9.03 -4.63 1.84 -5.11645 -30.2526 -3.92926 -0.56 -20.96 -1.11 178.999 0.985536 179.88 -0.92 -39.5 0.13 1.77583 3.9311 -0.920815 0.67 -23.69 -2.38 -178 -5.00249 180 1.95 -46.11 -3.16 10.1249 14.7562 -17.7832 9.03 -4.63 1.84 5.82799 8.05007 -9.23766 0.56 -20.96 -1.11 1.00072 -0.985536 -0.120339 0.92 -39.5 0.13 -6.55444 35.154 -2.04098 -0.67 -23.69 -2.38 -2.00003 5.00249 1.19727e-015 -1.95 -46.11 -3.16 10.1789 -25.6594 2.73088 -1.42109e-014 8.75 -1.34 -2.53509 2.20565 -11.8424 -7.10543e-015 5.29 1.34 9.93923e-017 -7.95139e-016 -5.96354e-016 -7.10543e-015 10.86 -0.64 9.01339 -0.147 -6.9109 -1.42109e-014 13.36 1.13 -7.95139e-016 -8.11145 -0 1.42109e-014 30.83 0.62 -8.45077 -8.84703 1.33237 0 4.53 1.86 -3.97569e-016 13.3025 -0 0 8.07999 3.5 7.19842 0.463131 2.68886 -6.47 27.74 1.17 7.45801 -1.50115 1.71378 -3.34 1.09 -0.1 179.728 0.0460078 -176.853 -13.48 -1.85001 0.28 86.7386 26.445 -32.7057 -15.83 1.72001 1.18 -173.074 72.5861 168.727 -32.39 2.57001 2.48 -6.19853 -1.33101 18.3547 -14.4 0.919997 0.46 -166.737 68.9748 162.665 -28.68 0.870001 2.99 2.81263 -11.5034 0.209615 6.47 27.74 1.17 -3.44834 0.621131 -3.51741 3.34 1.09 -0.1 0.272227 -0.0460078 3.14706 13.48 -1.85001 0.28 -61.9545 35.2242 -18.5948 15.83 1.72001 1.18 -6.92597 -72.5861 -11.273 32.39 2.57001 2.48 32.555 -28.6909 -69.255 14.4 0.919997 0.46 -13.2633 -68.9748 -17.3353 28.68 0.870001 2.99 0.811899 -29.2072 0.125709 
67.7813 92.8916 -148.887 -2.59102 3.55489 12.8607 1.42109e-014 0.089997 -0.08 -9.93923e-017 0 -0 -9.03 -4.63 1.84 -4.27194 -31.2124 -3.29144 -0.56 -20.96 -1.11 178.999 0.985536 179.88 -0.92 -39.5 0.13 1.45739 6.58749 -0.909593 0.67 -23.69 -2.38 -178 -5.00249 180 1.95 -46.11 -3.16 11.0707 14.6335 -19.3206 9.03 -4.63 1.84 6.08666 8.75645 -9.14465 0.56 -20.96 -1.11 1.00072 -0.985536 -0.120339 0.92 -39.5 0.13 -6.19425 34.9227 -2.24311 -0.67 -23.69 -2.38 -2.00003 5.00249 -1.19727e-015 -1.95 -46.11 -3.16 9.50781 -23.3403 2.34376 1.42109e-014 8.75 -1.34 -2.35355 1.73121 -11.8124 -7.10543e-015 5.29 1.34 -1.45361e-015 1.59028e-015 -1.98785e-016 -1.42109e-014 10.86 -0.64 9.12167 -0.0381969 -6.8996 -1.42109e-014 13.36 1.13 -1.09332e-015 -8.11145 -0 -7.10543e-015 30.83 0.62 -8.6088 -9.38449 1.42919 1.42109e-014 4.53 1.86 6.84962e-016 13.3025 -8.17062e-016 7.10543e-015 8.07999 3.5 7.26634 1.00562 2.99088 -6.47 27.74 1.17 7.49332 -1.48334 1.72984 -3.34 1.09 -0.1 179.728 0.0460078 -176.853 -13.48 -1.85001 0.28 85.9399 25.7321 -31.8937 -15.83 1.72001 1.18 -173.074 72.5861 168.727 -32.39 2.57001 2.48 -5.86381 -1.22947 17.811 -14.4 0.919997 0.46 -166.737 68.9748 162.665 -28.68 0.870001 2.99 2.77444 -10.895 0.13855 6.47 27.74 1.17 -3.44754 0.564944 -3.47804 3.34 1.09 -0.1 0.272227 -0.0460078 3.14706 13.48 -1.85001 0.28 -62.9722 35.4058 -17.4844 15.83 1.72001 1.18 -6.92597 -72.5861 -11.273 32.39 2.57001 2.48 32.5481 -28.6183 -69.263 14.4 0.919997 0.46 -13.2633 -68.9748 -17.3353 28.68 0.870001 2.99 0.804785 -29.2643 0.123022 
67.7044 92.8654 -147.039 -2.80343 3.66704 12.531 1.42109e-014 0.089997 -0.08 -2.98177e-016 0 -0 -9.03 -4.63 1.84 -3.41534 -32.0239 -2.69281 -0.56 -20.96 -1.11 178.999 0.985536 179.88 -0.92 -39.5 0.13 1.26533 9.1008 -0.787681 0.67 -23.69 -2.38 -178 -5.00249 -180 1.95 -46.11 -3.16 11.3624 14.3996 -20.1216 9.03 -4.63 1.84 6.32595 9.3298 -8.93813 0.56 -20.96 -1.11 1.00072 -0.985536 -0.120339 0.92 -39.5 0.13 -5.79868 34.8312 -2.40211 -0.67 -23.69 -2.38 -2.00003 5.00249 3.99089e-016 -1.95 -46.11 -3.16 8.61349 -20.6212 2.10124 0 8.75 -1.34 -2.10119 1.34773 -11.7407 2.13163e-014 5.29 1.34 1.09332e-015 -7.95139e-016 -0 7.10543e-015 10.86 -0.64 9.17141 0.0490509 -6.87158 1.42109e-014 13.36 1.13 -2.78696e-017 -8.11145 -1.60635e-015 0 30.83 0.62 -8.66387 -9.88406 1.54086 0 4.53 1.86 -7.34658e-016 13.3025 8.17062e-016 7.10543e-015 8.07999 3.5 7.2351 1.47808 3.28612 -6.47 27.74 1.17 7.52947 -1.45747 1.75342 -3.34 1.09 -0.1 179.728 0.0460078 -176.853 -13.48 -1.85001 0.28 85.2013 25.1284 -31.0365 -15.83 1.72001 1.18 -173.074 72.5861 168.727 -32.39 2.57001 2.48 -5.5726 -1.14279 17.3258 -14.4 0.919997 0.46 -166.737 68.9748 162.665 -28.68 0.870001 2.99 2.74858 -10.4048 0.0712195 6.47 27.74 1.17 -3.44271 0.508619 -3.44471 3.34 1.09 -0.1 0.272227 -0.0460078 3.14706 13.48 -1.85001 0.28 -64.0296 35.6092 -16.3448 15.83 1.72001 1.18 -6.92597 -72.5861 -11.273 32.39 2.57001 2.48 32.5382 -28.4801 -69.1288 14.4 0.919997 0.46 -13.2633 -68.9748 -17.3353 28.68 0.870001 2.99 0.796793 -29.3134 0.123191 
